<?xml version='1.0' encoding='iso-8859-1'?>
<!DOCTYPE svg PUBLIC '-//W3C//DTD SVG 1.1//EN' 'http://www.w3.org/Graphics/SVG/1.1/DTD/svg11.dtd'>
<!-- Uploaded to: SVG Repo, www.svgrepo.com, Transformed by: SVG Repo Mixer Tools -->
<svg fill="#ffffff" height="40px" width="40px" version="1.1" xmlns="http://www.w3.org/2000/svg" viewBox="0 0 487.1 487.1" xmlns:xlink="http://www.w3.org/1999/xlink" enable-background="new 0 0 487.1 487.1">
  <g>
    <path d="m377.233,286.118c0.596-20.434 1.213-41.564 8.482-62.191l6.579-18.668-44.544,13.6c6.116-30.662-2.193-55.792-9.665-78.396-5.293-16.01-10.292-31.133-10.291-47.301l.001-16.276-36.87,18.676c-15.19-27.813-35.856-66.185-38.065-71.818l-9.312-23.744-9.309,23.744c-2.209,5.632-22.875,44.004-38.065,71.817l-36.869-18.676 .001,16.276c0,16.168-4.999,31.291-10.292,47.3-7.473,22.605-15.782,47.735-9.666,78.397l-44.544-13.6 6.579,18.668c7.27,20.627 7.886,41.757 8.482,62.191 0.967,33.15 1.962,67.298 34.415,90.491l-31.483,21.004 17.913,6.97c15.156,5.897 26.655,13.599 37.775,21.046 16.4,10.985 31.891,21.36 53.928,21.36 3.64,0 7.338-0.29 11.136-0.857v40.969h20v-40.967c3.797,0.567 7.495,0.857 11.135,0.857 22.039,0 37.529-10.376 53.929-21.36 11.12-7.448 22.617-15.149 37.774-21.047l17.913-6.97-31.483-21.004c32.454-23.192 33.449-57.34 34.416-90.491zm-57.568,81.01l-15.638,7.643 28.318,18.893c-9.411,4.999-17.456,10.388-24.862,15.349-14.995,10.043-26.838,17.977-42.799,17.977-3.554,0-7.237-0.377-11.135-1.143v-24.755l45.124-47.507-14.501-13.773-30.623,32.24v-56.238l45.124-47.508-14.501-13.773-30.623,32.24v-56.239l45.124-47.507-14.501-13.773-30.623,32.24v-54.854h-20v54.852l-30.623-32.24-14.501,13.773 45.124,47.507v56.239l-30.623-32.24-14.501,13.773 45.124,47.508v56.238l-30.623-32.24-14.501,13.773 45.124,47.507v24.755c-3.898,0.765-7.582,1.143-11.136,1.143-15.958,0-27.803-7.934-42.799-17.978-7.406-4.96-15.452-10.349-24.862-15.348l28.318-18.893-15.638-7.643c-35.704-17.45-36.489-44.355-37.576-81.594-0.454-15.55-0.953-32.642-4.58-50.061l45.148,13.784-7.064-18.964c-12.175-32.684-4.006-57.394 4.642-83.555 4.019-12.156 8.136-24.61 10.108-37.908l26.298,13.321 4.654-8.484c2.945-5.369 22.419-40.913 34.485-63.941 12.066,23.028 31.54,58.572 34.485,63.941l4.654,8.484 26.299-13.321c1.971,13.298 6.089,25.752 10.107,37.909 8.648,26.161 16.817,50.871 4.642,83.554l-7.064,18.964 45.148-13.784c-3.626,17.418-4.126,34.51-4.58,50.061-1.083,37.241-1.868,64.146-37.573,81.596z"/>
  </g>
</svg>